<svg width="20" height="20" viewBox="0 0 20 20" fill="none" xmlns="http://www.w3.org/2000/svg">
<path fill-rule="evenodd" clip-rule="evenodd" d="M-6.10352e-05 17C-6.10352e-05 18.6569 1.34308 20 2.99994 20L16.9999 20C18.6568 20 19.9999 18.6569 19.9999 17L19.9999 3.00002C19.9999 1.34316 18.6568 1.93119e-05 16.9999 1.93119e-05L2.99994 1.93119e-05C1.34308 1.93119e-05 -6.10352e-05 1.34316 -6.10352e-05 3.00002L-6.10352e-05 17ZM11.0649 5.0067C11.5128 4.54758 11.9345 4.06208 12.4296 3.64999C12.6485 3.46793 12.8742 3.29571 13.1277 3.16446C13.491 2.97813 13.8889 3.14701 13.9109 3.47149L13.91 5.48797C13.9528 6.00846 13.7429 6.42323 13.3868 6.77303C13.1033 7.05118 12.7998 7.31118 12.5067 7.57971C12.386 7.68898 12.2731 7.80454 12.1831 7.94186C12.0046 8.21734 12.0588 8.45628 12.3457 8.61373C12.638 8.77386 12.9624 8.81149 13.2879 8.82626C13.7629 8.84819 13.8872 8.99153 13.91 9.46832C13.9573 10.4885 13.8023 11.4559 13.2888 12.3544C12.8357 13.1479 12.1952 13.762 11.4709 14.2966C10.0589 15.3384 8.50868 16.1364 6.91387 16.8528C6.55444 17.0147 6.36183 16.8965 6.35488 16.5012C6.34187 15.8423 6.34345 15.1837 6.354 14.5257C6.35849 14.258 6.51145 14.0805 6.76429 13.9781C7.63928 13.622 8.47198 13.1864 9.2446 12.6397C9.45018 12.4935 9.65488 12.3448 9.80002 12.134C9.96103 11.9005 9.90842 11.7219 9.64684 11.6118C9.48068 11.5417 9.30398 11.511 9.12635 11.4962C8.51831 11.4438 7.90961 11.4376 7.30337 11.5278C6.92442 11.5838 6.67941 11.7981 6.60776 12.1759C6.57101 12.3685 6.50024 12.3397 6.38983 12.2469C6.20016 12.0841 6.08187 11.9309 6.08187 11.6274L6.08187 9.63831C6.08187 9.44552 6.07324 9.23752 6.18247 9.07866C6.27769 8.94016 6.43083 8.8926 6.67515 8.85958L9.20785 8.85778C9.3478 8.86204 9.76235 8.78767 9.85418 8.53663C9.92068 8.33553 9.75875 8.2016 9.6311 8.0809C9.05194 7.53509 8.3671 7.14564 7.65849 6.79764C7.34697 6.64358 7.02337 6.51052 6.6995 6.38107C6.45985 6.28569 6.34183 6.13698 6.34609 5.86665L6.34877 3.67255C6.34877 3.60784 6.34877 3.54129 6.35928 3.47747C6.4231 3.10841 6.58236 3.00692 6.94359 3.1216C7.50952 3.30077 7.98205 3.65171 8.45528 3.99369C8.96187 4.36032 9.45075 4.75044 9.96002 5.11435C10.4264 5.44674 10.6608 5.42055 11.0649 5.0067Z" fill="black"/>
</svg>
