<svg width="20" height="20" viewBox="0 0 20 20" fill="none" xmlns="http://www.w3.org/2000/svg">
<path fill-rule="evenodd" clip-rule="evenodd" d="M2.99994 1.90735e-05C1.34308 1.90735e-05 -6.10352e-05 1.34316 -6.10352e-05 3.00002L-6.10352e-05 17C-6.10352e-05 18.6569 1.34308 20 2.99994 20H16.9999C18.6568 20 19.9999 18.6569 19.9999 17V3.00002C19.9999 1.34316 18.6568 1.90735e-05 16.9999 1.90735e-05L2.99994 1.90735e-05ZM14.9933 11.0649C15.4524 11.5129 15.9379 11.9346 16.35 12.4297C16.532 12.6485 16.7042 12.8743 16.8355 13.1278C17.0218 13.491 16.8529 13.889 16.5285 13.911L14.512 13.9101C13.9915 13.9529 13.5767 13.743 13.2269 13.3869C12.9488 13.1034 12.6888 12.7999 12.4202 12.5068C12.311 12.3861 12.1954 12.2732 12.0581 12.1832C11.7826 12.0047 11.5437 12.0589 11.3862 12.3458C11.2261 12.638 11.1885 12.9625 11.1737 13.288C11.1518 13.763 11.0084 13.8873 10.5316 13.9101C9.5115 13.9574 8.54402 13.8024 7.64552 13.2889C6.85203 12.8358 6.23796 12.1953 5.70337 11.471C4.66152 10.059 3.86359 8.50876 3.14715 6.91395C2.98521 6.55452 3.1035 6.36191 3.49875 6.35496C4.15765 6.34195 4.81629 6.34353 5.47427 6.35408C5.74192 6.35857 5.9195 6.51153 6.02187 6.76437C6.37796 7.63936 6.81352 8.47206 7.36024 9.24468C7.50649 9.45026 7.65519 9.65496 7.86591 9.8001C8.0995 9.96112 8.278 9.9085 8.38816 9.64692C8.45827 9.48076 8.48895 9.30406 8.50372 9.12643C8.55611 8.51839 8.5624 7.90969 8.47216 7.30345C8.41616 6.9245 8.20187 6.67949 7.82402 6.60784C7.63141 6.57109 7.66029 6.50032 7.75304 6.38991C7.91585 6.20024 8.06904 6.08195 8.37251 6.08195H10.3616C10.5544 6.08195 10.7624 6.07332 10.9213 6.18255C11.0598 6.27777 11.1073 6.43091 11.1404 6.67523L11.1422 9.20793C11.1379 9.34788 11.2123 9.76243 11.4633 9.85426C11.6644 9.92076 11.7984 9.75883 11.9191 9.63118C12.4649 9.05202 12.8543 8.36718 13.2023 7.65857C13.3564 7.34705 13.4894 7.02345 13.6189 6.69958C13.7143 6.45993 13.863 6.34191 14.1333 6.34617L16.3274 6.34885C16.3921 6.34885 16.4587 6.34885 16.5225 6.35936C16.8915 6.42318 16.993 6.58244 16.8784 6.94367C16.6992 7.5096 16.3482 7.98213 16.0063 8.45536C15.6396 8.96195 15.2495 9.45083 14.8856 9.9601C14.5532 10.4264 14.5794 10.6609 14.9933 11.0649Z" fill="black"/>
</svg>
